<svg width="1200" height="1200" viewBox="0 0 1200 1200" fill="none" xmlns="http://www.w3.org/2000/svg">
<circle cx="600" cy="600" r="600" fill="#EEEEEE"/>
<path d="M300.317 585.433H273.683C273.328 582.699 272.6 580.231 271.499 578.029C270.399 575.827 268.943 573.945 267.132 572.383C265.32 570.82 263.172 569.631 260.686 568.814C258.236 567.962 255.519 567.536 252.536 567.536C247.245 567.536 242.682 568.832 238.847 571.424C235.047 574.016 232.117 577.763 230.058 582.663C228.034 587.564 227.021 593.494 227.021 600.455C227.021 607.699 228.051 613.771 230.111 618.672C232.206 623.537 235.136 627.212 238.9 629.698C242.7 632.148 247.192 633.374 252.377 633.374C255.289 633.374 257.934 633.001 260.313 632.255C262.728 631.509 264.841 630.426 266.652 629.006C268.499 627.55 270.008 625.792 271.18 623.732C272.387 621.637 273.222 619.276 273.683 616.648L300.317 616.808C299.855 621.637 298.453 626.396 296.109 631.083C293.801 635.771 290.622 640.05 286.574 643.92C282.526 647.756 277.59 650.81 271.766 653.082C265.977 655.355 259.337 656.491 251.844 656.491C241.972 656.491 233.129 654.325 225.317 649.993C217.54 645.625 211.396 639.268 206.887 630.923C202.377 622.578 200.122 612.422 200.122 600.455C200.122 588.452 202.412 578.278 206.993 569.933C211.574 561.587 217.771 555.249 225.583 550.916C233.396 546.584 242.149 544.418 251.844 544.418C258.449 544.418 264.557 545.341 270.168 547.188C275.779 548.999 280.715 551.662 284.976 555.178C289.237 558.658 292.7 562.937 295.363 568.015C298.026 573.093 299.678 578.899 300.317 585.433ZM356.772 545.909V655H330.405V545.909H356.772ZM481.169 545.909V655H458.797L415.384 592.038H414.692V655H388.325V545.909H411.017L453.95 608.764H454.855V545.909H481.169ZM512.749 655V545.909H588.814V567.322H539.116V589.695H584.925V611.161H539.116V633.587H588.814V655H512.749ZM620.327 545.909H652.979L680.678 613.452H681.957L709.656 545.909H742.308V655H716.634V587.99H715.728L689.521 654.308H673.114L646.907 587.617H646.001V655H620.327V545.909ZM797.352 655H769.014L805.821 545.909H840.924L877.732 655H849.394L823.772 573.395H822.92L797.352 655ZM793.57 612.067H852.803V632.095H793.57V612.067ZM931.164 545.909L951.086 580.373H951.938L972.073 545.909H1001.58L968.664 600.455L1002.65 655H972.393L951.938 620.163H951.086L930.631 655H900.589L934.413 600.455L901.441 545.909H931.164Z" fill="#2A2A2A"/>
</svg>
